<?xml version="1.0" encoding="UTF-8" standalone="no"?>
<!-- Created with Inkscape (http://www.inkscape.org/) -->

<svg
   width="210mm"
   height="297mm"
   viewBox="0 0 210 297"
   version="1.1"
   id="svg5"
   sodipodi:docname="Figma2UMG.svg"
   xml:space="preserve"
   inkscape:version="1.2.2 (732a01da63, 2022-12-09)"
   xmlns:inkscape="http://www.inkscape.org/namespaces/inkscape"
   xmlns:sodipodi="http://sodipodi.sourceforge.net/DTD/sodipodi-0.dtd"
   xmlns="http://www.w3.org/2000/svg"
   xmlns:svg="http://www.w3.org/2000/svg"><sodipodi:namedview
     id="namedview7"
     pagecolor="#ffffff"
     bordercolor="#000000"
     borderopacity="0.25"
     inkscape:showpageshadow="2"
     inkscape:pageopacity="0.0"
     inkscape:pagecheckerboard="0"
     inkscape:deskcolor="#d1d1d1"
     inkscape:document-units="mm"
     showgrid="false"
     showguides="true"
     inkscape:zoom="2"
     inkscape:cx="556.5"
     inkscape:cy="791"
     inkscape:window-width="3840"
     inkscape:window-height="2089"
     inkscape:window-x="3832"
     inkscape:window-y="-8"
     inkscape:window-maximized="1"
     inkscape:current-layer="layer1"><sodipodi:guide
       position="-50.099926,181.66793"
       orientation="0,-1"
       id="guide3803"
       inkscape:locked="false" /><sodipodi:guide
       position="318.47168,193.53997"
       orientation="0,-1"
       id="guide23778"
       inkscape:locked="false" /><sodipodi:guide
       position="335.59029,137.50691"
       orientation="0,-1"
       id="guide23780"
       inkscape:locked="false" /><sodipodi:guide
       position="320.76352,165.7573"
       orientation="1,0"
       id="guide24330"
       inkscape:locked="false" /></sodipodi:namedview><defs
     id="defs2"><style
       id="style16145">.cls-1{fill-rule:evenodd;}</style></defs><g
     inkscape:label="Layer 1"
     inkscape:groupmode="layer"
     id="layer1"><g
       id="g24426"
       inkscape:export-filename="Marketplace.png"
       inkscape:export-xdpi="133.39276"
       inkscape:export-ydpi="133.39276"
       transform="translate(-15.875,-47.757292)"><rect
         style="fill:#3e3e3e;fill-opacity:1;stroke:#252525;stroke-width:5;stroke-linecap:round;stroke-linejoin:round;stroke-dasharray:none;stroke-opacity:1"
         id="rect24332"
         width="165.23112"
         height="165.23112"
         x="22.333841"
         y="53.594109"
         ry="9.8891439" /><g
         id="g24406"><g
           id="g24371"><path
             style="fill:#f24e1e;fill-opacity:1;stroke:#252525;stroke-width:3.92805;stroke-linecap:round;stroke-linejoin:round;stroke-dasharray:3.92805, 11.7842;stroke-dashoffset:0;stroke-opacity:1"
             d="m 38.870185,138.20889 h 13.20773"
             id="path23903"
             sodipodi:nodetypes="cc" /><g
             id="g24358"><path
               style="fill:#f24e1e;fill-opacity:1;stroke:#ff7262;stroke-width:3.92805;stroke-linecap:round;stroke-linejoin:round;stroke-dasharray:15.7122, 7.8561, 3.92805, 7.8561;stroke-dashoffset:0;stroke-opacity:1"
               d="m 122.23046,107.7878 h 48.39227"
               id="path23899"
               sodipodi:nodetypes="cc" /><path
               style="fill:#f24e1e;fill-opacity:1;stroke:#a259ff;stroke-width:3.27338;stroke-linecap:round;stroke-linejoin:round;stroke-dasharray:13.0935, 6.54675, 3.27338, 6.54675;stroke-dashoffset:0;stroke-opacity:1"
               d="M 38.870185,107.7878 H 61.929591"
               id="path23905"
               sodipodi:nodetypes="cc" /></g><g
             id="g24362"><path
               style="fill:#f24e1e;fill-opacity:1;stroke:#ff7262;stroke-width:3.92805;stroke-linecap:round;stroke-linejoin:round;stroke-dasharray:15.7122, 7.8561, 3.92805, 7.8561;stroke-dashoffset:0;stroke-opacity:1"
               d="m 122.23046,166.03174 h 48.39227"
               id="path23909"
               sodipodi:nodetypes="cc" /><path
               style="fill:#f24e1e;fill-opacity:1;stroke:#a259ff;stroke-width:3.27338;stroke-linecap:round;stroke-linejoin:round;stroke-dasharray:13.0935, 6.54675, 3.27338, 6.54675;stroke-dashoffset:0;stroke-opacity:1"
               d="M 38.870185,166.03174 H 61.929591"
               id="path23911"
               sodipodi:nodetypes="cc" /></g></g><g
           id="g24388"><path
             style="fill:#0acf83;fill-opacity:1;stroke:#252525;stroke-width:3.27338;stroke-linecap:round;stroke-linejoin:round;stroke-dasharray:none;stroke-opacity:1"
             id="circle22980"
             sodipodi:type="arc"
             sodipodi:cx="137.61298"
             sodipodi:cy="-103.55509"
             sodipodi:rx="46.227062"
             sodipodi:ry="46.227062"
             sodipodi:start="0"
             sodipodi:end="3.1415927"
             sodipodi:open="true"
             sodipodi:arc-type="chord"
             d="m 183.84004,-103.55509 a 46.227062,46.227062 0 0 1 -23.11353,40.033809 46.227062,46.227062 0 0 1 -46.22707,-10e-7 46.227062,46.227062 0 0 1 -23.113526,-40.033808 z"
             transform="rotate(90)" /><g
             id="g24375"><path
               style="fill:#f24e1e;fill-opacity:1;stroke:#252525;stroke-width:3.27338;stroke-linecap:round;stroke-linejoin:round;stroke-dasharray:none;stroke-opacity:1"
               id="path22982"
               sodipodi:type="arc"
               sodipodi:cx="137.61298"
               sodipodi:cy="103.66433"
               sodipodi:rx="46.227062"
               sodipodi:ry="46.227062"
               sodipodi:start="0"
               sodipodi:end="3.1415927"
               sodipodi:open="true"
               sodipodi:arc-type="chord"
               d="m 183.84004,103.66433 a 46.227062,46.227062 0 0 1 -23.11353,40.03381 46.227062,46.227062 0 0 1 -46.22707,0 46.227062,46.227062 0 0 1 -23.113526,-40.03381 z"
               transform="matrix(0,1,1,0,0,0)" /><path
               id="rect23775"
               style="fill:#f24e1e;fill-opacity:1;stroke:#252525;stroke-width:3.27338;stroke-linecap:round;stroke-linejoin:round;stroke-opacity:1"
               d="m 133.35137,124.17333 0.005,-16.3216 c 6.4e-4,-2.22499 4.1065,-1.57331 5.6798,0 l 27.08413,27.08421 c 1.57331,1.57331 1.5733,4.1065 0,5.67981 l -27.08423,27.08422 c -1.57329,1.5733 -5.67913,2.22498 -5.67979,-1e-5 l -0.005,-17.19078"
               sodipodi:nodetypes="cssssssc" /></g><g
             id="g24379"><circle
               style="fill:#1abcfe;fill-opacity:1;stroke:#252525;stroke-width:3.27338;stroke-linecap:round;stroke-linejoin:round;stroke-dasharray:none;stroke-opacity:1"
               id="circle22824"
               cx="102.96017"
               cy="137.66757"
               r="23.015146" /><path
               id="rect24327"
               style="fill:#f2ffea;stroke-width:3.27338;stroke-linecap:round;stroke-linejoin:round"
               d="m 101.16213,122.49389 12.69255,12.69255 c 1.57331,1.5733 1.57331,4.10649 0,5.6798 l -12.69255,12.69254 c -1.573303,1.5733 -4.106486,1.57331 -5.679802,0 0,0 -2.278793,-1.36084 -2.52554,-2.52554 -0.752746,-3.55313 3.91846,-10.167 3.91846,-10.167 0.800169,-2.07613 0.793974,-3.6013 0,-5.6798 0,0 -4.652343,-6.63545 -3.893296,-10.19218 0.24601,-1.15272 2.500376,-2.50037 2.500376,-2.50037 1.573316,-1.57331 4.106499,-1.5733 5.679802,0 z"
               sodipodi:nodetypes="sssssssssss" /></g></g></g></g><g
       id="g24568"
       inkscape:export-filename="Marketplace.png"
       inkscape:export-xdpi="254"
       inkscape:export-ydpi="254"><rect
         style="fill:#3e3e3e;fill-opacity:1;stroke:#252525;stroke-width:1.39438;stroke-linecap:round;stroke-linejoin:round;stroke-dasharray:none;stroke-opacity:1"
         id="rect24456"
         width="88.005615"
         height="47.405617"
         x="14.874695"
         y="193.91492"
         ry="2.8372436" /><g
         id="g24490"
         transform="matrix(0.46044277,0,0,0.46044277,10.554307,154.20047)"><g
           id="g24472"><path
             style="fill:#f24e1e;fill-opacity:1;stroke:#252525;stroke-width:3.92805;stroke-linecap:round;stroke-linejoin:round;stroke-dasharray:3.92805, 11.7842;stroke-dashoffset:0;stroke-opacity:1"
             d="m 38.870185,138.20889 h 13.20773"
             id="path24458"
             sodipodi:nodetypes="cc" /><g
             id="g24464"><path
               style="fill:#f24e1e;fill-opacity:1;stroke:#ff7262;stroke-width:3.92805;stroke-linecap:round;stroke-linejoin:round;stroke-dasharray:15.7122, 7.8561, 3.92805, 7.8561;stroke-dashoffset:0;stroke-opacity:1"
               d="m 122.23046,107.7878 h 48.39227"
               id="path24460"
               sodipodi:nodetypes="cc" /><path
               style="fill:#f24e1e;fill-opacity:1;stroke:#a259ff;stroke-width:3.27338;stroke-linecap:round;stroke-linejoin:round;stroke-dasharray:13.0935, 6.54675, 3.27338, 6.54675;stroke-dashoffset:0;stroke-opacity:1"
               d="M 38.870185,107.7878 H 61.929591"
               id="path24462"
               sodipodi:nodetypes="cc" /></g><g
             id="g24470"><path
               style="fill:#f24e1e;fill-opacity:1;stroke:#ff7262;stroke-width:3.92805;stroke-linecap:round;stroke-linejoin:round;stroke-dasharray:15.7122, 7.8561, 3.92805, 7.8561;stroke-dashoffset:0;stroke-opacity:1"
               d="m 122.23046,166.03174 h 48.39227"
               id="path24466"
               sodipodi:nodetypes="cc" /><path
               style="fill:#f24e1e;fill-opacity:1;stroke:#a259ff;stroke-width:3.27338;stroke-linecap:round;stroke-linejoin:round;stroke-dasharray:13.0935, 6.54675, 3.27338, 6.54675;stroke-dashoffset:0;stroke-opacity:1"
               d="M 38.870185,166.03174 H 61.929591"
               id="path24468"
               sodipodi:nodetypes="cc" /></g></g><g
           id="g24488"><path
             style="fill:#0acf83;fill-opacity:1;stroke:#252525;stroke-width:3.27338;stroke-linecap:round;stroke-linejoin:round;stroke-dasharray:none;stroke-opacity:1"
             id="path24474"
             sodipodi:type="arc"
             sodipodi:cx="137.61298"
             sodipodi:cy="-103.55509"
             sodipodi:rx="46.227062"
             sodipodi:ry="46.227062"
             sodipodi:start="0"
             sodipodi:end="3.1415927"
             sodipodi:open="true"
             sodipodi:arc-type="chord"
             d="m 183.84004,-103.55509 a 46.227062,46.227062 0 0 1 -23.11353,40.033809 46.227062,46.227062 0 0 1 -46.22707,-10e-7 46.227062,46.227062 0 0 1 -23.113526,-40.033808 z"
             transform="rotate(90)" /><g
             id="g24480"><path
               style="fill:#f24e1e;fill-opacity:1;stroke:#252525;stroke-width:3.27338;stroke-linecap:round;stroke-linejoin:round;stroke-dasharray:none;stroke-opacity:1"
               id="path24476"
               sodipodi:type="arc"
               sodipodi:cx="137.61298"
               sodipodi:cy="103.66433"
               sodipodi:rx="46.227062"
               sodipodi:ry="46.227062"
               sodipodi:start="0"
               sodipodi:end="3.1415927"
               sodipodi:open="true"
               sodipodi:arc-type="chord"
               d="m 183.84004,103.66433 a 46.227062,46.227062 0 0 1 -23.11353,40.03381 46.227062,46.227062 0 0 1 -46.22707,0 46.227062,46.227062 0 0 1 -23.113526,-40.03381 z"
               transform="matrix(0,1,1,0,0,0)" /><path
               id="path24478"
               style="fill:#f24e1e;fill-opacity:1;stroke:#252525;stroke-width:3.27338;stroke-linecap:round;stroke-linejoin:round;stroke-opacity:1"
               d="m 133.35137,124.17333 0.005,-16.3216 c 6.4e-4,-2.22499 4.1065,-1.57331 5.6798,0 l 27.08413,27.08421 c 1.57331,1.57331 1.5733,4.1065 0,5.67981 l -27.08423,27.08422 c -1.57329,1.5733 -5.67913,2.22498 -5.67979,-1e-5 l -0.005,-17.19078"
               sodipodi:nodetypes="cssssssc" /></g><g
             id="g24486"><circle
               style="fill:#1abcfe;fill-opacity:1;stroke:#252525;stroke-width:3.27338;stroke-linecap:round;stroke-linejoin:round;stroke-dasharray:none;stroke-opacity:1"
               id="circle24482"
               cx="102.96017"
               cy="137.66757"
               r="23.015146" /><path
               id="path24484"
               style="fill:#f2ffea;stroke-width:3.27338;stroke-linecap:round;stroke-linejoin:round"
               d="m 101.16213,122.49389 12.69255,12.69255 c 1.57331,1.5733 1.57331,4.10649 0,5.6798 l -12.69255,12.69254 c -1.573303,1.5733 -4.106486,1.57331 -5.679802,0 0,0 -2.278793,-1.36084 -2.52554,-2.52554 -0.752746,-3.55313 3.91846,-10.167 3.91846,-10.167 0.800169,-2.07613 0.793974,-3.6013 0,-5.6798 0,0 -4.652343,-6.63545 -3.893296,-10.19218 0.24601,-1.15272 2.500376,-2.50037 2.500376,-2.50037 1.573316,-1.57331 4.106499,-1.5733 5.679802,0 z"
               sodipodi:nodetypes="sssssssssss" /></g></g></g></g></g></svg>
